<?xml version="1.0" encoding="utf-8"?>
<svg version="1.1" xmlns="http://www.w3.org/2000/svg" viewBox="745 425 240 150">
<defs>
    <linearGradient id="grad1" gradientUnits="userSpaceOnUse" x1="867.6619" y1="482.9457" x2="932.2094" y2="456.3531">
        <stop  offset="9.268300e-002" style="stop-color:#2E2E2E;stop-opacity:0"/>
        <stop  offset="0.961" style="stop-color:#2E2E2E"/>
    </linearGradient>
    <linearGradient id="grad2" gradientUnits="userSpaceOnUse" x1="767.0117" y1="530.4182" x2="858.957" y2="530.4182">
        <stop  offset="0.1561" style="stop-color:#2E2E2E"/>
        <stop  offset="0.9171" style="stop-color:#2E2E2E;stop-opacity:0"/>
    </linearGradient>
</defs>
<path fill="url(#grad1)" d="M915.6,443.5c-0.4,0-0.8,0-1.1,0c-24.6,0.5-41.4,17-51.4,31.5l11.1,21.4c5.9-11.3,19.4-31.8,40.5-32.3
    c0.3,0,0.6,0,0.9,0c7.1,0,15.8,5.2,21.5,14.3c2.3-7.8,4.3-15.8,6.5-23.7C935.3,447.6,925.3,443.5,915.6,443.5z"/>
<path fill="#2E2E2E" d="M948.6,459.6c-1.6-1.8-3.3-3.4-5-4.9c-1.7,3.1-2.8,7.2-3.8,11.1c-1.1,4.1-2.4,8.3-2.7,12.6
    c3.6,5.8,6,13.1,6,21.7c0,24.5-16.4,36-27.6,36c-24.1,0-38.6-26.2-43.2-36l-6.4-12.7c-8.6-15.1-8.2-14.7-11-18.1
    c-10.4-13-26.2-25.8-48.2-25.8c-22.8,0-48.1,23.2-48.1,56.6c0,11.8,3.2,22.3,8.3,31c2.8-2.2,5.4-5.7,7.7-9.1
    c2.2-3.3,4.3-7.6,6-10.9c-0.9-3.4-1.4-7-1.4-10.9c0-22.3,16-36,27.5-36c24.1,0,38.6,26.3,43.2,36l11.2,22.2
    c9.8,15.3,27.5,34.3,54.4,34.3c23.2,0,48.1-21.6,48.1-56.6C963.7,484.8,958.4,470.4,948.6,459.6z"/>
<path fill="url(#grad2)" d="M806.8,556.7c0.3,0,0.6,0,1,0c19.6-0.3,37.2-11,51.1-31L848,504.1c-1.1,2-2.4,4.3-3.9,6.8
    c-7.4,11.5-19.8,25.2-37.2,25.2c0,0-0.1,0-0.1,0c-9.5-0.1-21.9-9.4-26.1-25c-5.2,6.3-9.7,13.1-13.7,20.1
    C776.4,547,792.1,556.7,806.8,556.7z"/>
</svg>
